<svg width="22" height="22" viewBox="0 0 22 22" fill="none" xmlns="http://www.w3.org/2000/svg">
<g clip-path="url(#clip0_1_7777)">
<path d="M4.58341 11.9166H15.4551L12.1276 15.9133C12.0505 16.0059 11.9925 16.1129 11.9568 16.228C11.9211 16.3431 11.9084 16.4642 11.9195 16.5842C11.9418 16.8266 12.0595 17.0502 12.2467 17.2058C12.4339 17.3613 12.6753 17.4362 12.9177 17.4139C13.1601 17.3915 13.3837 17.2738 13.5392 17.0866L18.1226 11.5866C18.1534 11.5428 18.181 11.4969 18.2051 11.4491C18.2051 11.4033 18.2509 11.3758 18.2692 11.3299C18.3108 11.2248 18.3326 11.1129 18.3334 10.9999C18.3326 10.8869 18.3108 10.775 18.2692 10.6699C18.2692 10.6241 18.2234 10.5966 18.2051 10.5508C18.181 10.503 18.1534 10.457 18.1226 10.4133L13.5392 4.91325C13.4531 4.80978 13.3451 4.72656 13.2231 4.66953C13.1011 4.61249 12.9681 4.58304 12.8334 4.58325C12.6192 4.58284 12.4117 4.65743 12.2467 4.79409C12.1539 4.87104 12.0772 4.96555 12.021 5.0722C11.9647 5.17885 11.9301 5.29555 11.919 5.41561C11.9079 5.53568 11.9207 5.65674 11.9565 5.77188C11.9922 5.88701 12.0504 5.99396 12.1276 6.08659L15.4551 10.0833H4.58341C4.3403 10.0833 4.10714 10.1798 3.93523 10.3517C3.76333 10.5236 3.66675 10.7568 3.66675 10.9999C3.66675 11.243 3.76333 11.4762 3.93523 11.6481C4.10714 11.82 4.3403 11.9166 4.58341 11.9166Z" fill="black"/>
</g>
<defs>
<clipPath id="clip0_1_7777">
<rect width="22" height="22" fill="white"/>
</clipPath>
</defs>
</svg>
